<?xml version="1.0" encoding="UTF-8"?> <svg xmlns="http://www.w3.org/2000/svg" xmlns:xlink="http://www.w3.org/1999/xlink" id="Layer_1" version="1.1" viewBox="0 0 2942 1146"><defs><style> .st0 { fill: #1b2838; } .st1, .st2, .st3, .st4, .st5, .st6 { fill-rule: evenodd; } .st1, .st3 { fill: #f0f6ff; } .st7 { isolation: isolate; } .st2, .st8, .st3, .st5, .st6 { stroke-miterlimit: 8; } .st2, .st8, .st3, .st6 { stroke: #8b8b98; stroke-width: 4.6px; } .st2, .st9 { fill: #fff; } .st8 { fill: none; } .st10 { fill: #8b8b98; } .st4 { fill: #f6faff; } .st5 { stroke: #0080a9; stroke-width: 9.2px; } .st5, .st6 { fill: #0080a9; } </style></defs><path class="st2" d="M91.5,586.5c0-22.1,17.9-40,40-40h311c22.1,0,40,17.9,40,40v78c0,22.1-17.9,40-40,40H131.5c-22.1,0-40-17.9-40-40v-78Z"></path><path class="st3" d="M47.5,542.5c0-22.1,17.9-40,40-40h311c22.1,0,40,17.9,40,40v78c0,22.1-17.9,40-40,40H87.5c-22.1,0-40-17.9-40-40v-78Z"></path><path class="st6" d="M3.5,498.5c0-22.1,17.9-40,40-40h311c22.1,0,40,17.9,40,40v78c0,22.1-17.9,40-40,40H43.5c-22.1,0-40-17.9-40-40v-78Z"></path><g class="st7"><path class="st9" d="M79.4,520.4h11.2c3.6,0,6.2.8,8,2.5,1.8,1.7,2.7,4.2,2.7,7.6v2.1c0,3.2-.9,5.6-2.7,7.2-1.8,1.6-4.5,2.5-8,2.5h-7.2v-3.2h6.2c2.7,0,4.6-.6,5.8-1.7,1.2-1.1,1.8-2.8,1.8-5.1v-1.7c0-2.5-.6-4.3-1.8-5.4-1.2-1.1-3.2-1.7-5.8-1.7h-6.9l1-1.1v31.5h-4.2v-33.6Z"></path><path class="st9" d="M107.3,528.1h2.9l1.3,9.6v16.4h-4.2v-25.9ZM110.2,539.8c0-4,.8-7,2.3-9,1.6-2,3.8-3.1,6.7-3.1s1,0,1.6,0c.5,0,1.1.2,1.6.3l-.2,3.6c-1-.3-2-.4-3.1-.4-2.5,0-4.4.8-5.6,2.4-1.3,1.6-1.9,4-1.9,7.2l-1.3-1.2Z"></path><path class="st9" d="M137.3,554.4c-2.6,0-4.8-.4-6.7-1.3-1.9-.9-3.3-2.2-4.3-3.8-1-1.7-1.5-3.6-1.5-5.9v-4.6c0-2.3.5-4.2,1.5-5.9,1-1.6,2.4-2.9,4.3-3.8,1.9-.9,4.1-1.3,6.6-1.3s4.8.4,6.7,1.3c1.9.9,3.3,2.2,4.3,3.8,1,1.7,1.5,3.6,1.5,5.9v4.6c0,2.3-.5,4.2-1.5,5.9-1,1.7-2.4,2.9-4.3,3.8-1.9.9-4.1,1.3-6.7,1.3ZM137.3,550.9c2.6,0,4.6-.7,6.1-2,1.5-1.4,2.2-3.2,2.2-5.6v-4.5c0-2.4-.7-4.2-2.2-5.6-1.5-1.4-3.5-2-6.1-2s-4.5.7-6,2.1c-1.5,1.4-2.3,3.2-2.3,5.6v4.5c0,2.3.8,4.2,2.3,5.6,1.5,1.4,3.5,2.1,6,2.1Z"></path><path class="st9" d="M166.7,554.4c-3.4,0-6-1-7.9-2.9-1.9-1.9-2.8-4.6-2.8-8.2v-4.6c0-3.5.9-6.2,2.8-8.2,1.9-1.9,4.5-2.9,7.9-2.9s4.5.5,6.3,1.5c1.8,1,3.2,2.4,4.2,4.2,1,1.8,1.5,3.9,1.5,6.4v2.4c0,2.5-.5,4.6-1.5,6.5-1,1.8-2.4,3.3-4.2,4.3-1.8,1-3.9,1.5-6.3,1.5ZM167.3,551.2c2.9,0,5.2-.8,6.9-2.5,1.7-1.7,2.5-4,2.5-7v-1.4c0-2.9-.8-5.2-2.5-6.9-1.7-1.7-4-2.5-6.9-2.5s-4,.7-5.2,2.2c-1.2,1.4-1.9,3.5-1.9,6.1v3.8c0,2.6.6,4.6,1.9,6,1.3,1.4,3,2.2,5.2,2.2ZM176.7,545.9v-27.4h4.2v35.5h-2.5l-1.6-8.1Z"></path><path class="st9" d="M192.7,543.4c0,2.6.5,4.6,1.5,5.8,1,1.2,2.6,1.8,4.8,1.8s4.9-.9,6.4-2.8c1.5-1.8,2.3-4.5,2.3-7.9l1.8-3.3v3.2c0,4.5-1,8-2.9,10.4-1.9,2.4-4.7,3.7-8.4,3.7s-5.8-.9-7.4-2.6-2.4-4.4-2.4-8v-15.7h4.2v15.4ZM212,554h-2.9l-1.3-8.5v-17.4h4.2v25.9Z"></path><path class="st9" d="M231.2,554.4c-2.5,0-4.6-.4-6.4-1.3-1.8-.9-3.2-2.2-4.2-3.8-1-1.7-1.4-3.6-1.4-5.9v-4.6c0-2.3.5-4.2,1.5-5.9,1-1.6,2.4-2.9,4.2-3.8,1.8-.9,3.9-1.3,6.4-1.3,3.5,0,6.4.8,8.5,2.5,2.2,1.6,3.4,3.9,3.7,6.7l-4.1.3c-.4-2-1.2-3.6-2.6-4.7-1.3-1.1-3.1-1.6-5.4-1.6s-4.4.7-5.8,2.1c-1.4,1.4-2.1,3.3-2.1,5.7v4.6c0,2.4.7,4.3,2.1,5.7,1.4,1.4,3.4,2,5.9,2s4.1-.5,5.4-1.6c1.3-1.1,2.2-2.6,2.6-4.6l4.1.3c-.3,2.8-1.5,5.1-3.7,6.7-2.2,1.7-5,2.5-8.5,2.5Z"></path><path class="st9" d="M260.5,554.4c-2.5,0-4.6-.4-6.4-1.3-1.7-.8-3.1-2.1-4-3.7-.9-1.6-1.4-3.6-1.4-6v-4.7c0-2.3.5-4.2,1.5-5.9,1-1.6,2.4-2.9,4.2-3.8,1.8-.9,4-1.3,6.5-1.3,3.8,0,6.8,1,8.9,3,2.1,2,3.1,4.9,3.1,8.7v2.9h-20.8v-2.7h17.4l-.7,1.1v-2.3c0-2.3-.7-4.2-2.1-5.5-1.4-1.3-3.3-2-5.8-2s-4.5.7-6,2c-1.4,1.3-2.1,3.2-2.1,5.7v5.1c0,2.4.7,4.2,2,5.5,1.4,1.3,3.3,1.9,5.7,1.9s4-.4,5.4-1.3c1.4-.9,2.2-2.2,2.5-3.8l4,.2c-.6,2.6-1.9,4.6-4,6-2.1,1.4-4.8,2.1-8,2.1Z"></path><path class="st9" d="M279.5,528.1h2.9l1.3,9.6v16.4h-4.2v-25.9ZM282.4,539.8c0-4,.8-7,2.3-9,1.6-2,3.8-3.1,6.7-3.1s1,0,1.6,0c.5,0,1.1.2,1.6.3l-.2,3.6c-1-.3-2-.4-3.1-.4-2.5,0-4.4.8-5.6,2.4-1.3,1.6-1.9,4-1.9,7.2l-1.3-1.2Z"></path><path class="st9" d="M307.7,554.3c-3.4,0-6-.6-7.8-1.9-1.8-1.3-2.9-3.3-3.3-6h4.3c.2,1.6.8,2.9,2,3.7,1.1.8,2.7,1.2,4.8,1.2s3.6-.3,4.7-1,1.7-1.7,1.7-3-.3-1.8-.9-2.4-1.4-1-2.4-1.3c-1-.3-2.1-.5-3.3-.7-1.2-.2-2.4-.5-3.6-.7-1.2-.3-2.3-.7-3.3-1.2-1-.5-1.8-1.3-2.4-2.2-.6-.9-.9-2.2-.9-3.8,0-2.4.9-4.2,2.7-5.4,1.8-1.2,4.5-1.8,7.9-1.8s4,.3,5.4.8c1.5.6,2.7,1.4,3.6,2.5.9,1.1,1.4,2.5,1.7,4.1l-4.3.2c-.1-1.5-.7-2.6-1.8-3.4-1.1-.8-2.5-1.2-4.5-1.2s-3.6.4-4.7,1.1-1.7,1.7-1.7,3,.3,1.9.9,2.4,1.4,1,2.4,1.3c1,.3,2.1.6,3.3.8,1.2.2,2.4.5,3.6.7,1.2.3,2.3.7,3.3,1.2,1,.5,1.8,1.3,2.4,2.2.6.9.9,2.2.9,3.7,0,2.3-.9,4.1-2.7,5.3-1.8,1.2-4.5,1.8-8,1.8Z"></path></g><path class="st2" d="M2545.5,590.5c0-22.1,17.9-40,40-40h311c22.1,0,40,17.9,40,40v78c0,22.1-17.9,40-40,40h-311c-22.1,0-40-17.9-40-40v-78Z"></path><path class="st3" d="M2501.5,546.5c0-22.1,17.9-40,40-40h311c22.1,0,40,17.9,40,40v78c0,22.1-17.9,40-40,40h-311c-22.1,0-40-17.9-40-40v-78Z"></path><path class="st6" d="M2457.5,502.5c0-22.1,17.9-40,40-40h311c22.1,0,40,17.9,40,40v78c0,22.1-17.9,40-40,40h-311c-22.1,0-40-17.9-40-40v-78Z"></path><g class="st7"><path class="st9" d="M2530.2,558.4c-2.7,0-5-.5-6.9-1.5-1.9-1-3.3-2.5-4.3-4.5-1-2-1.5-4.5-1.5-7.4v-7.7c0-2.8.5-5.2,1.5-7.2,1-2,2.4-3.4,4.3-4.5,1.9-1,4.2-1.5,6.9-1.5s6.4.8,8.5,2.5c2,1.7,3.4,4.2,4,7.5l-4.1.4c-.4-2.4-1.3-4.2-2.7-5.3s-3.2-1.7-5.6-1.7-5,.8-6.5,2.4c-1.5,1.6-2.2,4.1-2.2,7.5v7.6c0,3.5.7,6,2.1,7.7,1.4,1.6,3.6,2.5,6.5,2.5s4.4-.6,5.8-1.9c1.4-1.3,2.3-3.2,2.6-5.8l4,.4c-.5,3.5-1.8,6.1-3.9,7.9-2.1,1.8-5,2.7-8.7,2.7Z"></path><path class="st9" d="M2560.3,558.4c-2.6,0-4.8-.4-6.7-1.3-1.9-.9-3.3-2.2-4.3-3.8-1-1.7-1.5-3.6-1.5-5.9v-4.6c0-2.3.5-4.2,1.5-5.9,1-1.6,2.4-2.9,4.3-3.8,1.9-.9,4.1-1.3,6.6-1.3s4.8.4,6.7,1.3c1.9.9,3.3,2.2,4.3,3.8,1,1.7,1.5,3.6,1.5,5.9v4.6c0,2.3-.5,4.2-1.5,5.9-1,1.7-2.4,2.9-4.3,3.8s-4.1,1.3-6.7,1.3ZM2560.3,554.9c2.6,0,4.6-.7,6.1-2,1.5-1.4,2.2-3.2,2.2-5.6v-4.5c0-2.4-.7-4.2-2.2-5.6s-3.5-2-6.1-2-4.5.7-6,2.1c-1.5,1.4-2.3,3.2-2.3,5.6v4.5c0,2.3.8,4.2,2.3,5.6,1.5,1.4,3.5,2.1,6,2.1Z"></path><path class="st9" d="M2580,532.1h2.9l1.3,8.5v17.4h-4.2v-25.9ZM2599.3,542.7c0-2.7-.5-4.6-1.6-5.8-1.1-1.2-2.8-1.8-5.1-1.8s-4.8.9-6.2,2.7-2.2,4.5-2.2,7.9l-1.8,3.3v-3.2c0-4.5,1-8,3-10.5,2-2.4,4.9-3.6,8.7-3.6s5.5.9,7.1,2.6c1.5,1.7,2.3,4.4,2.3,8.1v15.6h-4.2v-15.3Z"></path><path class="st9" d="M2620.5,558.3c-3.4,0-6-.6-7.8-1.9-1.8-1.3-2.9-3.3-3.3-6h4.3c.2,1.6.8,2.9,2,3.7,1.1.8,2.7,1.2,4.8,1.2s3.6-.3,4.7-1c1.1-.7,1.7-1.7,1.7-3s-.3-1.8-.9-2.4c-.6-.6-1.4-1-2.4-1.3s-2.1-.5-3.3-.7c-1.2-.2-2.4-.5-3.6-.7-1.2-.3-2.3-.7-3.3-1.2s-1.8-1.3-2.4-2.2c-.6-.9-.9-2.2-.9-3.8,0-2.4.9-4.2,2.7-5.4,1.8-1.2,4.5-1.8,7.9-1.8s4,.3,5.4.8c1.5.6,2.7,1.4,3.6,2.5.9,1.1,1.4,2.5,1.7,4.1l-4.3.2c-.1-1.5-.7-2.6-1.8-3.4-1.1-.8-2.5-1.2-4.5-1.2s-3.6.4-4.7,1.1-1.7,1.7-1.7,3,.3,1.9.9,2.4c.6.6,1.4,1,2.4,1.3,1,.3,2.1.6,3.3.8,1.2.2,2.4.5,3.6.7,1.2.3,2.3.7,3.3,1.2,1,.5,1.8,1.3,2.4,2.2.6.9.9,2.2.9,3.7,0,2.3-.9,4.1-2.7,5.3-1.8,1.2-4.5,1.8-8,1.8Z"></path><path class="st9" d="M2641.6,547.4c0,2.6.5,4.6,1.5,5.8,1,1.2,2.6,1.8,4.8,1.8s4.9-.9,6.4-2.8c1.5-1.8,2.3-4.5,2.3-7.9l1.8-3.3v3.2c0,4.5-1,8-2.9,10.4-1.9,2.4-4.7,3.7-8.4,3.7s-5.8-.9-7.4-2.6-2.4-4.4-2.4-8v-15.7h4.2v15.4ZM2660.9,558h-2.9l-1.3-8.5v-17.4h4.2v25.9Z"></path><path class="st9" d="M2669,532.1h2.9l1.3,8.9v17h-4.2v-25.9ZM2687.9,542.6c0-2.6-.5-4.6-1.6-5.8-1.1-1.2-2.7-1.8-4.9-1.8s-4.7.9-6.1,2.7-2.1,4.5-2.1,7.9l-1.8,3.3v-3.2c0-4.5,1-8,3-10.5,2-2.4,4.8-3.6,8.6-3.6s5.5.9,7,2.6c1.5,1.7,2.3,4.4,2.3,8v15.7h-4.2v-15.4ZM2706.8,542.6c0-2.6-.5-4.6-1.6-5.8-1.1-1.2-2.7-1.8-5-1.8s-4.6.9-6,2.7c-1.4,1.8-2.1,4.5-2.1,7.9l-1.9,3.3v-3.2c0-4.5,1-8,3-10.5,2-2.4,4.9-3.6,8.6-3.6s5.5.9,7,2.6c1.5,1.7,2.3,4.4,2.3,8v15.7h-4.2v-15.4Z"></path><path class="st9" d="M2729.5,558.4c-2.5,0-4.6-.4-6.4-1.3-1.7-.8-3.1-2.1-4-3.7-.9-1.6-1.4-3.6-1.4-6v-4.7c0-2.3.5-4.2,1.5-5.9,1-1.6,2.4-2.9,4.2-3.8,1.8-.9,4-1.3,6.5-1.3,3.8,0,6.8,1,8.9,3s3.1,4.9,3.1,8.7v2.9h-20.8v-2.7h17.4l-.7,1.1v-2.3c0-2.3-.7-4.2-2.1-5.5-1.4-1.3-3.3-2-5.8-2s-4.5.7-6,2c-1.4,1.3-2.1,3.2-2.1,5.7v5.1c0,2.4.7,4.2,2,5.5,1.4,1.3,3.3,1.9,5.7,1.9s4-.4,5.4-1.3c1.4-.9,2.2-2.2,2.5-3.8l4,.2c-.6,2.6-1.9,4.6-4,6-2.1,1.4-4.8,2.1-8,2.1Z"></path><path class="st9" d="M2748.6,532.1h2.9l1.3,9.6v16.4h-4.2v-25.9ZM2751.5,543.8c0-4,.8-7,2.3-9,1.6-2,3.8-3.1,6.7-3.1s1,0,1.6,0c.5,0,1.1.2,1.6.3l-.2,3.6c-1-.3-2-.4-3.1-.4-2.5,0-4.4.8-5.6,2.4-1.3,1.6-1.9,4-1.9,7.2l-1.3-1.2Z"></path><path class="st9" d="M2776.7,558.3c-3.4,0-6-.6-7.8-1.9-1.8-1.3-2.9-3.3-3.3-6h4.3c.2,1.6.8,2.9,2,3.7,1.1.8,2.7,1.2,4.8,1.2s3.6-.3,4.7-1,1.7-1.7,1.7-3-.3-1.8-.9-2.4-1.4-1-2.4-1.3c-1-.3-2.1-.5-3.3-.7-1.2-.2-2.4-.5-3.6-.7-1.2-.3-2.3-.7-3.3-1.2s-1.8-1.3-2.4-2.2c-.6-.9-.9-2.2-.9-3.8,0-2.4.9-4.2,2.7-5.4,1.8-1.2,4.5-1.8,7.9-1.8s4,.3,5.4.8c1.5.6,2.7,1.4,3.6,2.5.9,1.1,1.4,2.5,1.7,4.1l-4.3.2c-.1-1.5-.7-2.6-1.8-3.4-1.1-.8-2.5-1.2-4.5-1.2s-3.6.4-4.7,1.1c-1.1.7-1.7,1.7-1.7,3s.3,1.9.9,2.4,1.4,1,2.4,1.3c1,.3,2.1.6,3.3.8,1.2.2,2.4.5,3.6.7s2.3.7,3.3,1.2c1,.5,1.8,1.3,2.4,2.2.6.9.9,2.2.9,3.7,0,2.3-.9,4.1-2.7,5.3-1.8,1.2-4.5,1.8-8,1.8Z"></path></g><path class="st1" d="M2065.1,85.5c-27.3,0-49.4,88.4-49.4,197.5s22.1,197.5,49.4,197.5H790.9c-27.3,0-49.4-88.4-49.4-197.5s22.1-197.5,49.4-197.5h1274.3Z"></path><path class="st4" d="M2065.1,85.5c27.3,0,49.4,88.4,49.4,197.5s-22.1,197.5-49.4,197.5-49.4-88.4-49.4-197.5,22.1-197.5,49.4-197.5Z"></path><path class="st8" d="M2065.1,480.5c-27.3,0-49.4-88.4-49.4-197.5s22.1-197.5,49.4-197.5,49.4,88.4,49.4,197.5-22.1,197.5-49.4,197.5H790.9c-27.3,0-49.4-88.4-49.4-197.5s22.1-197.5,49.4-197.5h1274.3"></path><path class="st2" d="M799.5,158.4c0-10.5,8.5-18.9,18.9-18.9h1120.1c10.5,0,18.9,8.5,18.9,18.9v77.1c0,10.5-8.5,18.9-18.9,18.9H818.4c-10.5,0-18.9-8.5-18.9-18.9v-77.1Z"></path><g class="st7"><path class="st0" d="M898.1,181.3v4.6h-10.8l3.2-2.7v26.8h-6.4v-26.8l3.1,2.7h-10.7v-4.6h21.8Z"></path><path class="st0" d="M909.9,210.4c-2.6,0-4.8-.4-6.6-1.2-1.8-.8-3.2-2-4.2-3.5-1-1.5-1.5-3.3-1.5-5.4v-2.7c0-2.1.5-3.9,1.5-5.4,1-1.5,2.4-2.7,4.3-3.5,1.8-.8,4-1.2,6.6-1.2s4.7.4,6.6,1.2c1.8.8,3.3,2,4.3,3.5,1,1.5,1.5,3.3,1.5,5.4v2.7c0,2.1-.5,3.9-1.5,5.4-1,1.5-2.4,2.7-4.3,3.5-1.8.8-4,1.2-6.6,1.2ZM909.9,205.6c1.8,0,3.2-.5,4.3-1.5,1.1-1,1.6-2.3,1.6-4v-2.5c0-1.7-.5-3-1.6-4-1.1-1-2.5-1.5-4.3-1.5s-3.2.5-4.3,1.5c-1.1,1-1.6,2.3-1.6,4v2.5c0,1.6.5,3,1.6,3.9,1.1,1,2.5,1.5,4.3,1.5Z"></path><path class="st0" d="M927.2,187.9h4.1l2.3,6.5v23h-6.4v-29.5ZM941.8,210.4c-2.2,0-4.1-.4-5.7-1.3-1.6-.9-2.9-2.1-3.8-3.7-.9-1.6-1.4-3.5-1.4-5.6v-1.7c0-2.2.5-4,1.4-5.6.9-1.6,2.2-2.8,3.9-3.7,1.7-.9,3.6-1.3,5.8-1.3s5.5.9,7.2,2.6c1.7,1.8,2.5,4.3,2.5,7.5v2.7c0,3.2-.9,5.7-2.6,7.5-1.7,1.8-4.2,2.6-7.3,2.6ZM940.2,205.8c1.6,0,2.9-.5,3.8-1.5.9-1,1.4-2.4,1.4-4.2v-2.2c0-1.8-.5-3.2-1.4-4.2-.9-1-2.2-1.5-3.8-1.5s-3.6.6-4.8,1.7c-1.2,1.1-1.7,2.7-1.7,4.6v.9c0,2,.6,3.6,1.7,4.7,1.2,1.1,2.8,1.7,4.8,1.7Z"></path><path class="st0" d="M963.5,179.1v6h-7v-6h7ZM963.2,187.9v22.1h-6.4v-22.1h6.4Z"></path><path class="st0" d="M980,210.4c-2.4,0-4.5-.4-6.3-1.2-1.7-.8-3.1-2-4-3.5-.9-1.5-1.4-3.3-1.4-5.4v-2.7c0-2.1.5-3.9,1.4-5.4s2.3-2.7,4.1-3.5c1.8-.8,3.8-1.2,6.3-1.2,3.6,0,6.5.8,8.6,2.3,2.1,1.5,3.3,3.6,3.6,6.3l-6.2.5c-.3-1.4-.9-2.6-1.8-3.4-.9-.8-2.2-1.2-3.8-1.2s-3.1.5-4.1,1.5-1.5,2.4-1.5,4.1v2.9c0,1.7.5,3.1,1.5,4.1,1,1,2.4,1.5,4.1,1.5s2.8-.4,3.8-1.2c.9-.8,1.6-1.9,1.8-3.4l6.2.5c-.2,2.6-1.4,4.7-3.6,6.3-2.1,1.5-5,2.3-8.6,2.3Z"></path><path class="st0" d="M1016.6,210h-6.4v-25.2l2,2.1-7,.9-.5-4.4,9-2.3h3v28.8Z"></path></g><path class="st5" d="M1083.5,196.5c0-17.1,13.9-31,31-31s31,13.9,31,31-13.9,31-31,31-31-13.9-31-31Z"></path><path class="st5" d="M1187.5,196.5c0-17.1,13.9-31,31-31s31,13.9,31,31-13.9,31-31,31-31-13.9-31-31Z"></path><path class="st5" d="M1290.5,196.5c0-17.1,13.9-31,31-31s31,13.9,31,31-13.9,31-31,31-31-13.9-31-31Z"></path><path class="st5" d="M1394.5,196.5c0-17.1,13.9-31,31-31s31,13.9,31,31-13.9,31-31,31-31-13.9-31-31Z"></path><g class="st7"><path class="st0" d="M1530.7,204v6h-5.9v-6h5.9Z"></path><path class="st0" d="M1550.6,204v6h-5.9v-6h5.9Z"></path><path class="st0" d="M1570.5,204v6h-5.9v-6h5.9Z"></path></g><g class="st7"><path class="st0" d="M1640.7,207.1h14.6v2.9h-17.3v-28.7h17.1v2.9h-14.4l.8-2.3v13.8l-.8-1.4h13.6v2.7h-13.6l.8-1.4v13.7l-.8-2.3Z"></path><path class="st0" d="M1656.7,187.9h3.6l6.9,20.1h0l7-20.1h3.5l-7.3,22.1h-6.3l-7.4-22.1Z"></path><path class="st0" d="M1690.7,210.3c-2.1,0-3.9-.4-5.4-1.1-1.5-.7-2.6-1.8-3.4-3.2-.8-1.4-1.2-3.1-1.2-5.1v-4c0-1.9.4-3.6,1.3-5,.8-1.4,2-2.5,3.6-3.2,1.5-.8,3.4-1.1,5.6-1.1,3.3,0,5.8.9,7.6,2.6,1.8,1.7,2.7,4.2,2.7,7.4v2.5h-17.8v-2.3h14.9l-.6.9v-1.9c0-2-.6-3.6-1.8-4.7-1.2-1.1-2.8-1.7-4.9-1.7s-3.9.6-5.1,1.7c-1.2,1.1-1.8,2.8-1.8,4.8v4.3c0,2.1.6,3.6,1.7,4.7,1.2,1.1,2.8,1.6,4.9,1.6s3.4-.4,4.6-1.1c1.2-.8,1.9-1.8,2.2-3.2l3.4.2c-.5,2.2-1.6,3.9-3.4,5.1-1.8,1.2-4.1,1.8-6.9,1.8Z"></path><path class="st0" d="M1707,187.9h2.5l1.1,7.3v14.8h-3.6v-22.1ZM1723.4,196.9c0-2.3-.5-3.9-1.4-5-.9-1.1-2.4-1.6-4.3-1.6s-4.1.8-5.3,2.3c-1.2,1.6-1.8,3.8-1.8,6.8l-1.6,2.8v-2.7c0-3.9.9-6.9,2.6-8.9,1.7-2.1,4.2-3.1,7.4-3.1s4.7.7,6,2.2c1.3,1.5,2,3.8,2,6.9v13.3h-3.6v-13.1Z"></path><path class="st0" d="M1730.7,187.9h13.2v2.7h-13.2v-2.7ZM1740.7,210.3c-2.1,0-3.5-.5-4.5-1.5-.9-1-1.4-2.6-1.4-4.7v-15.9l1-5.6h2.5v21.2c0,1.4.2,2.4.7,2.9.5.5,1.3.8,2.6.8s.8,0,1.3,0c.4,0,.8-.1,1.2-.3l.5,2.6c-.4.1-.8.2-1.3.3-.5.1-.9.2-1.4.3-.5,0-.9.1-1.4.1Z"></path><path class="st0" d="M1759.3,181.3h10.1c3.8,0,6.6.8,8.4,2.4,1.8,1.6,2.7,4.1,2.7,7.5v8.9c0,3.4-.9,6-2.7,7.5-1.8,1.6-4.6,2.4-8.4,2.4h-10.1v-28.7ZM1762.1,207.3h6.5c3,0,5.1-.6,6.4-1.7,1.3-1.1,1.9-2.9,1.9-5.5v-9c0-2.6-.6-4.4-1.9-5.5-1.3-1.1-3.4-1.6-6.4-1.6h-6.5l.8-2v27.5l-.8-2.1Z"></path><path class="st0" d="M1793.2,210.3c-2.4,0-4.2-.6-5.6-1.7-1.4-1.1-2-2.6-2-4.6v-1.1c0-2,.7-3.5,2-4.6,1.4-1.1,3.3-1.6,5.8-1.6s4.7.5,6.2,1.6c1.5,1.1,2.3,2.5,2.3,4.5v1.2c0,2-.8,3.6-2.3,4.7s-3.7,1.7-6.4,1.7ZM1800.4,202.7v-7.3c0-1.7-.5-3-1.4-3.8-1-.8-2.5-1.2-4.6-1.2s-2.7.2-4,.6c-1.3.4-2.5.9-3.7,1.6l-.5-2.7c.8-.4,1.6-.8,2.6-1.2,1-.3,2-.6,3.2-.8s2.2-.3,3.1-.3c3,0,5.2.7,6.6,2,1.5,1.3,2.2,3.3,2.2,5.9v14.6h-2.5l-1.1-7.3ZM1794.2,208c1.9,0,3.4-.4,4.5-1.2,1.1-.8,1.7-1.9,1.7-3.2v-.6c0-1.3-.5-2.2-1.6-3s-2.5-1.1-4.4-1.1-3,.3-4,1c-.9.6-1.4,1.7-1.4,3.3v.5c0,1.4.5,2.5,1.4,3.2.9.7,2.2,1.1,3.8,1.1Z"></path><path class="st0" d="M1807.8,187.9h13.2v2.7h-13.2v-2.7ZM1817.7,210.3c-2,0-3.5-.5-4.5-1.5-.9-1-1.4-2.6-1.4-4.7v-15.9l1-5.6h2.5v21.2c0,1.4.2,2.4.7,2.9.5.5,1.3.8,2.6.8s.8,0,1.3,0c.4,0,.8-.1,1.3-.3l.5,2.6c-.4.1-.8.2-1.3.3-.5.1-.9.2-1.4.3-.5,0-.9.1-1.4.1Z"></path><path class="st0" d="M1832.2,210.3c-2.4,0-4.2-.6-5.6-1.7-1.4-1.1-2-2.6-2-4.6v-1.1c0-2,.7-3.5,2-4.6,1.4-1.1,3.3-1.6,5.8-1.6s4.7.5,6.2,1.6c1.5,1.1,2.3,2.5,2.3,4.5v1.2c0,2-.8,3.6-2.3,4.7-1.5,1.1-3.7,1.7-6.4,1.7ZM1839.4,202.7v-7.3c0-1.7-.5-3-1.4-3.8-1-.8-2.5-1.2-4.6-1.2s-2.7.2-4,.6c-1.3.4-2.5.9-3.7,1.6l-.5-2.7c.8-.4,1.6-.8,2.6-1.2,1-.3,2-.6,3.2-.8,1.1-.2,2.2-.3,3.1-.3,3,0,5.2.7,6.6,2,1.5,1.3,2.2,3.3,2.2,5.9v14.6h-2.5l-1.1-7.3ZM1833.2,208c1.9,0,3.4-.4,4.5-1.2,1.1-.8,1.7-1.9,1.7-3.2v-.6c0-1.3-.5-2.2-1.6-3-1-.7-2.5-1.1-4.4-1.1s-3,.3-4,1c-.9.6-1.4,1.7-1.4,3.3v.5c0,1.4.5,2.5,1.4,3.2.9.7,2.2,1.1,3.8,1.1Z"></path></g><path class="st2" d="M798.5,304.3c0-10.4,8.4-18.8,18.8-18.8h1120.5c10.4,0,18.8,8.4,18.8,18.8v76.5c0,10.4-8.4,18.8-18.8,18.8H817.3c-10.4,0-18.8-8.4-18.8-18.8v-76.5Z"></path><g class="st7"><path class="st0" d="M897.2,327.3v4.6h-10.8l3.2-2.7v26.8h-6.4v-26.8l3.1,2.7h-10.7v-4.6h21.8Z"></path><path class="st0" d="M908.9,356.4c-2.6,0-4.8-.4-6.6-1.2-1.8-.8-3.2-2-4.2-3.5-1-1.5-1.5-3.3-1.5-5.4v-2.7c0-2.1.5-3.9,1.5-5.4,1-1.5,2.4-2.7,4.3-3.5,1.8-.8,4-1.2,6.6-1.2s4.7.4,6.6,1.2c1.8.8,3.3,2,4.3,3.5,1,1.5,1.5,3.3,1.5,5.4v2.7c0,2.1-.5,3.9-1.5,5.4-1,1.5-2.4,2.7-4.3,3.5-1.8.8-4,1.2-6.6,1.2ZM908.9,351.6c1.8,0,3.2-.5,4.3-1.5,1.1-1,1.6-2.3,1.6-4v-2.5c0-1.7-.5-3-1.6-4-1.1-1-2.5-1.5-4.3-1.5s-3.2.5-4.3,1.5c-1.1,1-1.6,2.3-1.6,4v2.5c0,1.6.5,3,1.6,3.9,1.1,1,2.5,1.5,4.3,1.5Z"></path><path class="st0" d="M926.3,333.9h4.1l2.3,6.5v23h-6.4v-29.5ZM940.9,356.4c-2.2,0-4.1-.4-5.7-1.3-1.6-.9-2.9-2.1-3.8-3.7-.9-1.6-1.4-3.5-1.4-5.6v-1.7c0-2.2.5-4,1.4-5.6.9-1.6,2.2-2.8,3.9-3.7,1.7-.9,3.6-1.3,5.8-1.3s5.5.9,7.2,2.6c1.7,1.8,2.5,4.3,2.5,7.5v2.7c0,3.2-.9,5.7-2.6,7.5-1.7,1.8-4.2,2.6-7.3,2.6ZM939.2,351.8c1.6,0,2.9-.5,3.8-1.5.9-1,1.4-2.4,1.4-4.2v-2.2c0-1.8-.5-3.2-1.4-4.2-.9-1-2.2-1.5-3.8-1.5s-3.6.6-4.8,1.7c-1.2,1.1-1.7,2.7-1.7,4.6v.9c0,2,.6,3.6,1.7,4.7,1.2,1.1,2.8,1.7,4.8,1.7Z"></path><path class="st0" d="M962.6,325.1v6h-7v-6h7ZM962.3,333.9v22.1h-6.4v-22.1h6.4Z"></path><path class="st0" d="M979.1,356.4c-2.4,0-4.5-.4-6.3-1.2-1.7-.8-3.1-2-4-3.5-.9-1.5-1.4-3.3-1.4-5.4v-2.7c0-2.1.5-3.9,1.4-5.4s2.3-2.7,4.1-3.5c1.8-.8,3.8-1.2,6.3-1.2,3.6,0,6.5.8,8.6,2.3,2.1,1.5,3.3,3.6,3.6,6.3l-6.2.5c-.3-1.4-.9-2.6-1.8-3.4-.9-.8-2.2-1.2-3.8-1.2s-3.1.5-4.1,1.5-1.5,2.4-1.5,4.1v2.9c0,1.7.5,3.1,1.5,4.1,1,1,2.4,1.5,4.1,1.5s2.8-.4,3.8-1.2c.9-.8,1.6-1.9,1.8-3.4l6.2.5c-.2,2.6-1.4,4.7-3.6,6.3-2.1,1.5-5,2.3-8.6,2.3Z"></path><path class="st0" d="M1004.4,352.4l12.9-10.6c.9-.8,1.7-1.5,2.3-2.1.6-.6,1-1.1,1.4-1.6s.6-.9.7-1.4c.1-.5.2-.9.2-1.5v-.3c0-1.2-.5-2.1-1.4-2.7-.9-.6-2.2-.9-4-.9s-2.8.4-3.8,1.2c-1,.8-1.6,2-2,3.5l-6.2-.6c.5-2.8,1.7-4.9,3.8-6.3,2-1.4,4.7-2.2,8.1-2.2s6.7.7,8.8,2c2.1,1.3,3.1,3.2,3.1,5.7v.6c0,1.2-.2,2.3-.5,3.3-.3,1-.9,1.9-1.8,2.9-.8,1-2,2.1-3.5,3.4l-11.9,10-2-3.3h19.8v4.6h-23.9v-3.6Z"></path></g><path class="st5" d="M1082.5,342.5c0-17.1,13.9-31,31-31s31,13.9,31,31-13.9,31-31,31-31-13.9-31-31Z"></path><path class="st5" d="M1186.5,342.5c0-17.1,13.9-31,31-31s31,13.9,31,31-13.9,31-31,31-31-13.9-31-31Z"></path><path class="st5" d="M1289.5,342.5c0-17.1,13.9-31,31-31s31,13.9,31,31-13.9,31-31,31-31-13.9-31-31Z"></path><path class="st5" d="M1393.5,342.5c0-17.1,13.9-31,31-31s31,13.9,31,31-13.9,31-31,31-31-13.9-31-31Z"></path><g class="st7"><path class="st0" d="M1529.8,350v6h-5.9v-6h5.9Z"></path><path class="st0" d="M1549.7,350v6h-5.9v-6h5.9Z"></path><path class="st0" d="M1569.6,350v6h-5.9v-6h5.9Z"></path></g><g class="st7"><path class="st0" d="M1639.8,353.1h14.6v2.9h-17.3v-28.7h17.1v2.9h-14.4l.8-2.3v13.8l-.8-1.4h13.6v2.7h-13.6l.8-1.4v13.7l-.8-2.3Z"></path><path class="st0" d="M1655.8,333.9h3.6l6.9,20.1h0l7-20.1h3.5l-7.3,22.1h-6.3l-7.4-22.1Z"></path><path class="st0" d="M1689.8,356.3c-2.1,0-3.9-.4-5.4-1.1-1.5-.7-2.6-1.8-3.4-3.2-.8-1.4-1.2-3.1-1.2-5.1v-4c0-1.9.4-3.6,1.2-5,.8-1.4,2-2.5,3.6-3.2,1.5-.8,3.4-1.1,5.6-1.1,3.3,0,5.8.9,7.6,2.6,1.8,1.7,2.7,4.2,2.7,7.4v2.5h-17.8v-2.3h14.9l-.6.9v-1.9c0-2-.6-3.6-1.8-4.7-1.2-1.1-2.8-1.7-4.9-1.7s-3.9.6-5.1,1.7c-1.2,1.1-1.8,2.8-1.8,4.8v4.3c0,2.1.6,3.6,1.7,4.7,1.2,1.1,2.8,1.6,4.9,1.6s3.4-.4,4.6-1.1c1.2-.8,1.9-1.8,2.2-3.2l3.4.2c-.5,2.2-1.6,3.9-3.4,5.1-1.8,1.2-4.1,1.8-6.9,1.8Z"></path><path class="st0" d="M1706,333.9h2.5l1.1,7.3v14.8h-3.6v-22.1ZM1722.5,342.9c0-2.3-.5-3.9-1.4-5-.9-1.1-2.4-1.6-4.3-1.6s-4.1.8-5.3,2.3c-1.2,1.6-1.8,3.8-1.8,6.8l-1.6,2.8v-2.7c0-3.9.9-6.9,2.6-8.9s4.2-3.1,7.4-3.1,4.7.7,6,2.2c1.3,1.5,2,3.8,2,6.9v13.3h-3.6v-13.1Z"></path><path class="st0" d="M1729.8,333.9h13.2v2.7h-13.2v-2.7ZM1739.7,356.3c-2,0-3.5-.5-4.5-1.5-.9-1-1.4-2.6-1.4-4.7v-15.9l1-5.6h2.5v21.2c0,1.4.2,2.4.7,2.9.5.5,1.3.8,2.6.8s.8,0,1.2,0,.8-.1,1.3-.3l.5,2.6c-.4.1-.8.2-1.3.3s-.9.2-1.4.3c-.5,0-.9.1-1.4.1Z"></path><path class="st0" d="M1758.4,327.3h10.1c3.8,0,6.6.8,8.4,2.4,1.8,1.6,2.7,4.1,2.7,7.5v8.9c0,3.4-.9,6-2.7,7.5-1.8,1.6-4.6,2.4-8.4,2.4h-10.1v-28.7ZM1761.1,353.3h6.5c3,0,5.1-.6,6.4-1.7,1.3-1.1,1.9-2.9,1.9-5.5v-9c0-2.6-.6-4.4-1.9-5.5-1.3-1.1-3.4-1.6-6.4-1.6h-6.5l.8-2v27.5l-.8-2.1Z"></path><path class="st0" d="M1792.3,356.3c-2.4,0-4.2-.6-5.6-1.7-1.4-1.1-2-2.6-2-4.6v-1.1c0-2,.7-3.5,2-4.6,1.4-1.1,3.3-1.6,5.8-1.6s4.7.5,6.2,1.6c1.5,1.1,2.3,2.5,2.3,4.5v1.2c0,2-.8,3.6-2.3,4.7-1.5,1.1-3.7,1.7-6.4,1.7ZM1799.5,348.7v-7.3c0-1.7-.5-3-1.4-3.8-1-.8-2.5-1.2-4.6-1.2s-2.7.2-4,.6c-1.3.4-2.5.9-3.7,1.6l-.5-2.7c.8-.4,1.6-.8,2.6-1.2,1-.3,2-.6,3.2-.8,1.1-.2,2.2-.3,3.1-.3,3,0,5.2.7,6.6,2s2.2,3.3,2.2,5.9v14.6h-2.5l-1.1-7.3ZM1793.3,354c1.9,0,3.4-.4,4.5-1.2,1.1-.8,1.7-1.9,1.7-3.2v-.6c0-1.3-.5-2.2-1.6-3s-2.5-1.1-4.4-1.1-3,.3-4,1c-.9.6-1.4,1.7-1.4,3.3v.5c0,1.4.5,2.5,1.4,3.2.9.7,2.2,1.1,3.8,1.1Z"></path><path class="st0" d="M1806.9,333.9h13.2v2.7h-13.2v-2.7ZM1816.8,356.3c-2.1,0-3.5-.5-4.5-1.5-.9-1-1.4-2.6-1.4-4.7v-15.9l1-5.6h2.5v21.2c0,1.4.2,2.4.7,2.9.5.5,1.3.8,2.6.8s.8,0,1.3,0c.4,0,.8-.1,1.2-.3l.5,2.6c-.4.1-.8.2-1.3.3-.5.1-.9.2-1.4.3-.5,0-.9.1-1.4.1Z"></path><path class="st0" d="M1831.3,356.3c-2.4,0-4.2-.6-5.6-1.7-1.4-1.1-2-2.6-2-4.6v-1.1c0-2,.7-3.5,2-4.6,1.4-1.1,3.3-1.6,5.8-1.6s4.7.5,6.2,1.6c1.5,1.1,2.3,2.5,2.3,4.5v1.2c0,2-.8,3.6-2.3,4.7s-3.7,1.7-6.4,1.7ZM1838.4,348.7v-7.3c0-1.7-.5-3-1.4-3.8-1-.8-2.5-1.2-4.6-1.2s-2.7.2-4,.6c-1.3.4-2.5.9-3.7,1.6l-.5-2.7c.8-.4,1.6-.8,2.6-1.2,1-.3,2-.6,3.2-.8,1.1-.2,2.2-.3,3.1-.3,3,0,5.2.7,6.6,2,1.5,1.3,2.2,3.3,2.2,5.9v14.6h-2.5l-1.1-7.3ZM1832.2,354c1.9,0,3.4-.4,4.5-1.2,1.1-.8,1.7-1.9,1.7-3.2v-.6c0-1.3-.5-2.2-1.6-3-1-.7-2.5-1.1-4.4-1.1s-3,.3-4,1c-.9.6-1.4,1.7-1.4,3.3v.5c0,1.4.5,2.5,1.4,3.2.9.7,2.2,1.1,3.8,1.1Z"></path></g><g class="st7"><path class="st0" d="M1410.5,444v6h-5.9v-6h5.9Z"></path><path class="st0" d="M1430.4,444v6h-5.9v-6h5.9Z"></path><path class="st0" d="M1450.4,444v6h-5.9v-6h5.9Z"></path></g><g class="st7"><path class="st0" d="M1315.1,28.3h12.1c3.3,0,5.8.8,7.6,2.3,1.7,1.5,2.6,3.7,2.6,6.7v2.2c0,2.8-.9,5-2.6,6.5-1.7,1.5-4.3,2.2-7.6,2.2h-5.9v-4.5h4.4c1.8,0,3.2-.4,4.1-1.2.9-.8,1.3-2,1.3-3.6v-1c0-1.7-.4-3-1.3-3.8-.9-.8-2.2-1.2-4.1-1.2h-5.5l1.4-1.5v25.7h-6.4v-28.7Z"></path><path class="st0" d="M1348.4,57.4c-2.6,0-4.6-.6-6.1-1.7-1.5-1.1-2.2-2.7-2.2-4.7v-.8c0-2.1.7-3.6,2.2-4.8,1.5-1.1,3.6-1.7,6.2-1.7s5.1.5,6.7,1.6c1.6,1.1,2.4,2.7,2.4,4.7v.9c0,2-.8,3.6-2.4,4.8-1.6,1.1-3.9,1.7-6.8,1.7ZM1355.3,49v-5.4c0-1.6-.5-2.7-1.4-3.5-1-.7-2.5-1.1-4.6-1.1s-2.6.2-3.9.5c-1.3.3-2.6.8-3.7,1.5l-.9-4.4c.9-.4,1.9-.8,3-1.1,1.1-.3,2.3-.6,3.6-.8,1.2-.2,2.4-.3,3.5-.3,3.7,0,6.5.8,8.3,2.3,1.8,1.5,2.7,3.8,2.7,6.9v13.3h-5.1l-1.6-8ZM1350.2,54c1.5,0,2.7-.3,3.6-.9.9-.6,1.3-1.4,1.3-2.5v-.5c0-1-.4-1.8-1.3-2.3s-2-.8-3.5-.8-2.5.3-3.2.8c-.8.5-1.1,1.4-1.1,2.5v.4c0,1.1.4,1.9,1.1,2.5.7.6,1.8.9,3.1.9Z"></path><path class="st0" d="M1367.4,34.9h5.1l1.4,8.6v13.6h-6.4v-22.1ZM1372.3,45.6c0-3.7.7-6.5,2-8.4,1.3-1.9,3.2-2.8,5.8-2.8s.9,0,1.4,0c.5,0,.9.2,1.4.3l-.4,5.5c-.9-.2-1.8-.3-2.8-.3-1.9,0-3.4.6-4.4,1.8-1,1.2-1.5,3.1-1.5,5.6l-1.5-1.7Z"></path><path class="st0" d="M1384.2,34.9h15.8v4.5h-15.8v-4.5ZM1394.8,57.4c-2.4,0-4.1-.6-5.2-1.8-1.1-1.2-1.6-3-1.6-5.5v-14.4l1.8-6.1h4.6v19.4c0,1.3.2,2.2.7,2.7.5.5,1.3.8,2.5.8s.8,0,1.3-.1.9-.2,1.4-.4l.8,4.1c-.6.2-1.2.5-1.9.7-.7.2-1.4.3-2.2.5-.8.1-1.5.2-2.2.2Z"></path><path class="st0" d="M1411.4,26.1v6h-7v-6h7ZM1411.1,34.9v22.1h-6.4v-22.1h6.4Z"></path><path class="st0" d="M1414.6,34.9h15.8v4.5h-15.8v-4.5ZM1425.1,57.4c-2.4,0-4.1-.6-5.2-1.8-1.1-1.2-1.6-3-1.6-5.5v-14.4l1.8-6.1h4.6v19.4c0,1.3.2,2.2.7,2.7.5.5,1.3.8,2.5.8s.8,0,1.3-.1.9-.2,1.4-.4l.8,4.1c-.6.2-1.2.5-1.9.7-.7.2-1.4.3-2.2.5-.8.1-1.5.2-2.2.2Z"></path><path class="st0" d="M1441.8,26.1v6h-7v-6h7ZM1441.5,34.9v22.1h-6.4v-22.1h6.4Z"></path><path class="st0" d="M1458.9,57.4c-2.6,0-4.8-.4-6.6-1.2-1.8-.8-3.2-2-4.2-3.5-1-1.5-1.5-3.3-1.5-5.4v-2.7c0-2.1.5-3.9,1.5-5.4,1-1.5,2.4-2.7,4.3-3.5,1.8-.8,4-1.2,6.6-1.2s4.7.4,6.6,1.2c1.8.8,3.3,2,4.3,3.5,1,1.5,1.5,3.3,1.5,5.4v2.7c0,2.1-.5,3.9-1.5,5.4-1,1.5-2.4,2.7-4.3,3.5-1.8.8-4,1.2-6.6,1.2ZM1458.9,52.6c1.8,0,3.2-.5,4.3-1.5,1.1-1,1.6-2.3,1.6-4v-2.5c0-1.7-.5-3-1.6-4-1.1-1-2.5-1.5-4.3-1.5s-3.2.5-4.3,1.5c-1.1,1-1.6,2.3-1.6,4v2.5c0,1.6.5,3,1.6,3.9,1.1,1,2.5,1.5,4.3,1.5Z"></path><path class="st0" d="M1476.2,34.9h5.1l1.4,6.6v15.5h-6.4v-22.1ZM1493.2,45.1c0-2-.4-3.5-1.1-4.4-.8-.9-1.9-1.4-3.6-1.4s-3.3.7-4.3,2c-1,1.3-1.5,3.3-1.5,5.9l-2.3,3.3v-2.8c0-4.3.9-7.6,2.8-9.8,1.8-2.3,4.5-3.4,7.9-3.4s5.1.8,6.5,2.3c1.4,1.6,2.1,4,2.1,7.3v12.9h-6.4v-11.9Z"></path><path class="st0" d="M1522.4,28.3h10.2l9.6,28.7h-6.6l-8-24.6h-.2l-8.1,24.6h-6.6l9.6-28.7ZM1520.2,45.9h14.5v4.5h-14.5v-4.5Z"></path></g><path class="st1" d="M2065.2,611.5c-27.2,0-49.2,88.2-49.2,197s22.1,197,49.2,197H790.8c-27.2,0-49.2-88.2-49.2-197s22.1-197,49.2-197h1274.5Z"></path><path class="st4" d="M2065.2,611.5c27.2,0,49.2,88.2,49.2,197s-22.1,197-49.2,197-49.2-88.2-49.2-197,22.1-197,49.2-197Z"></path><path class="st8" d="M2065.2,1005.5c-27.2,0-49.2-88.2-49.2-197s22.1-197,49.2-197,49.2,88.2,49.2,197-22.1,197-49.2,197H790.8c-27.2,0-49.2-88.2-49.2-197s22.1-197,49.2-197h1274.5"></path><path class="st2" d="M799.5,684.4c0-10.5,8.5-18.9,18.9-18.9h1120.1c10.5,0,18.9,8.5,18.9,18.9v77.1c0,10.5-8.5,18.9-18.9,18.9H818.4c-10.5,0-18.9-8.5-18.9-18.9v-77.1Z"></path><g class="st7"><path class="st0" d="M898.2,707.3v4.6h-10.8l3.2-2.7v26.8h-6.4v-26.8l3.1,2.7h-10.7v-4.6h21.8Z"></path><path class="st0" d="M909.9,736.4c-2.6,0-4.8-.4-6.6-1.2-1.8-.8-3.2-2-4.2-3.5-1-1.5-1.5-3.3-1.5-5.4v-2.7c0-2.1.5-3.9,1.5-5.4,1-1.5,2.4-2.7,4.3-3.5,1.8-.8,4-1.2,6.6-1.2s4.7.4,6.6,1.2c1.8.8,3.3,2,4.3,3.5,1,1.5,1.5,3.3,1.5,5.4v2.7c0,2.1-.5,3.9-1.5,5.4-1,1.5-2.4,2.7-4.3,3.5-1.8.8-4,1.2-6.6,1.2ZM909.9,731.6c1.8,0,3.2-.5,4.3-1.5,1.1-1,1.6-2.3,1.6-4v-2.5c0-1.7-.5-3-1.6-4-1.1-1-2.5-1.5-4.3-1.5s-3.2.5-4.3,1.5c-1.1,1-1.6,2.3-1.6,4v2.5c0,1.6.5,3,1.6,3.9,1.1,1,2.5,1.5,4.3,1.5Z"></path><path class="st0" d="M927.2,713.9h4.1l2.3,6.5v23h-6.4v-29.5ZM941.9,736.4c-2.2,0-4.1-.4-5.7-1.3-1.6-.9-2.9-2.1-3.8-3.7-.9-1.6-1.4-3.5-1.4-5.6v-1.7c0-2.2.5-4,1.4-5.6.9-1.6,2.2-2.8,3.9-3.7,1.7-.9,3.6-1.3,5.8-1.3s5.5.9,7.2,2.6c1.7,1.8,2.5,4.3,2.5,7.5v2.7c0,3.2-.9,5.7-2.6,7.5-1.7,1.8-4.2,2.6-7.3,2.6ZM940.2,731.8c1.6,0,2.9-.5,3.8-1.5.9-1,1.4-2.4,1.4-4.2v-2.2c0-1.8-.5-3.2-1.4-4.2-.9-1-2.2-1.5-3.8-1.5s-3.6.6-4.8,1.7c-1.2,1.1-1.7,2.7-1.7,4.6v.9c0,2,.6,3.6,1.7,4.7,1.2,1.1,2.8,1.7,4.8,1.7Z"></path><path class="st0" d="M963.6,705.1v6h-7v-6h7ZM963.3,713.9v22.1h-6.4v-22.1h6.4Z"></path><path class="st0" d="M980,736.4c-2.4,0-4.5-.4-6.3-1.2-1.7-.8-3.1-2-4-3.5-.9-1.5-1.4-3.3-1.4-5.4v-2.7c0-2.1.5-3.9,1.4-5.4s2.3-2.7,4.1-3.5c1.8-.8,3.8-1.2,6.3-1.2,3.6,0,6.5.8,8.6,2.3,2.1,1.5,3.3,3.6,3.6,6.3l-6.2.5c-.3-1.4-.9-2.6-1.8-3.4-.9-.8-2.2-1.2-3.8-1.2s-3.1.5-4.1,1.5-1.5,2.4-1.5,4.1v2.9c0,1.7.5,3.1,1.5,4.1,1,1,2.4,1.5,4.1,1.5s2.8-.4,3.8-1.2c.9-.8,1.6-1.9,1.8-3.4l6.2.5c-.2,2.6-1.4,4.7-3.6,6.3-2.1,1.5-5,2.3-8.6,2.3Z"></path><path class="st0" d="M1016.6,736h-6.4v-25.2l2,2.1-7,.9-.5-4.4,9-2.3h3v28.8Z"></path></g><path class="st5" d="M1083.5,722.5c0-17.1,13.9-31,31-31s31,13.9,31,31-13.9,31-31,31-31-13.9-31-31Z"></path><path class="st5" d="M1187.5,722.5c0-17.1,13.9-31,31-31s31,13.9,31,31-13.9,31-31,31-31-13.9-31-31Z"></path><path class="st5" d="M1290.5,722.5c0-17.1,13.9-31,31-31s31,13.9,31,31-13.9,31-31,31-31-13.9-31-31Z"></path><path class="st5" d="M1394.5,722.5c0-17.1,13.9-31,31-31s31,13.9,31,31-13.9,31-31,31-31-13.9-31-31Z"></path><g class="st7"><path class="st0" d="M1530.7,730v6h-5.9v-6h5.9Z"></path><path class="st0" d="M1550.6,730v6h-5.9v-6h5.9Z"></path><path class="st0" d="M1570.6,730v6h-5.9v-6h5.9Z"></path></g><g class="st7"><path class="st0" d="M1640.8,733.1h14.6v2.9h-17.3v-28.7h17.1v2.9h-14.4l.8-2.3v13.8l-.8-1.4h13.6v2.7h-13.6l.8-1.4v13.7l-.8-2.3Z"></path><path class="st0" d="M1656.7,713.9h3.6l6.9,20.1h0l7-20.1h3.5l-7.3,22.1h-6.3l-7.4-22.1Z"></path><path class="st0" d="M1690.7,736.3c-2.1,0-3.9-.4-5.4-1.1-1.5-.7-2.6-1.8-3.4-3.2-.8-1.4-1.2-3.1-1.2-5.1v-4c0-1.9.4-3.6,1.2-5,.8-1.4,2-2.5,3.6-3.2,1.5-.8,3.4-1.1,5.6-1.1,3.3,0,5.8.9,7.6,2.6,1.8,1.7,2.7,4.2,2.7,7.4v2.5h-17.8v-2.3h14.9l-.6.9v-1.9c0-2-.6-3.6-1.8-4.7-1.2-1.1-2.8-1.7-4.9-1.7s-3.9.6-5.1,1.7c-1.2,1.1-1.8,2.8-1.8,4.8v4.3c0,2.1.6,3.6,1.7,4.7,1.2,1.1,2.8,1.6,4.9,1.6s3.4-.4,4.6-1.1c1.2-.8,1.9-1.8,2.2-3.2l3.4.2c-.5,2.2-1.6,3.9-3.4,5.1-1.8,1.2-4.1,1.8-6.9,1.8Z"></path><path class="st0" d="M1707,713.9h2.5l1.1,7.3v14.8h-3.6v-22.1ZM1723.4,722.9c0-2.3-.5-3.9-1.4-5-.9-1.1-2.4-1.6-4.3-1.6s-4.1.8-5.3,2.3c-1.2,1.6-1.8,3.8-1.8,6.8l-1.6,2.8v-2.7c0-3.9.9-6.9,2.6-8.9,1.7-2.1,4.2-3.1,7.4-3.1s4.7.7,6,2.2c1.3,1.5,2,3.8,2,6.9v13.3h-3.6v-13.1Z"></path><path class="st0" d="M1730.8,713.9h13.2v2.7h-13.2v-2.7ZM1740.7,736.3c-2,0-3.5-.5-4.5-1.5-.9-1-1.4-2.6-1.4-4.7v-15.9l1-5.6h2.5v21.2c0,1.4.2,2.4.7,2.9.5.5,1.3.8,2.6.8s.8,0,1.2,0,.8-.1,1.3-.3l.5,2.6c-.4.1-.8.2-1.3.3s-.9.2-1.4.3c-.5,0-.9.1-1.4.1Z"></path><path class="st0" d="M1759.3,707.3h10.1c3.8,0,6.6.8,8.4,2.4,1.8,1.6,2.7,4.1,2.7,7.5v8.9c0,3.4-.9,6-2.7,7.5-1.8,1.6-4.6,2.4-8.4,2.4h-10.1v-28.7ZM1762.1,733.3h6.5c3,0,5.1-.6,6.4-1.7,1.3-1.1,1.9-2.9,1.9-5.5v-9c0-2.6-.6-4.4-1.9-5.5-1.3-1.1-3.4-1.6-6.4-1.6h-6.5l.8-2v27.5l-.8-2.1Z"></path><path class="st0" d="M1793.3,736.3c-2.4,0-4.2-.6-5.6-1.7-1.4-1.1-2-2.6-2-4.6v-1.1c0-2,.7-3.5,2-4.6,1.4-1.1,3.3-1.6,5.8-1.6s4.7.5,6.2,1.6c1.5,1.1,2.3,2.5,2.3,4.5v1.2c0,2-.8,3.6-2.3,4.7-1.5,1.1-3.7,1.7-6.4,1.7ZM1800.4,728.7v-7.3c0-1.7-.5-3-1.4-3.8-1-.8-2.5-1.2-4.6-1.2s-2.7.2-4,.6c-1.3.4-2.5.9-3.7,1.6l-.5-2.7c.8-.4,1.6-.8,2.6-1.2,1-.3,2.1-.6,3.2-.8s2.2-.3,3.1-.3c3,0,5.2.7,6.6,2,1.5,1.3,2.2,3.3,2.2,5.9v14.6h-2.5l-1.1-7.3ZM1794.3,734c1.9,0,3.4-.4,4.5-1.2,1.1-.8,1.7-1.9,1.7-3.2v-.6c0-1.3-.5-2.2-1.6-3-1-.7-2.5-1.1-4.4-1.1s-3,.3-4,1c-.9.6-1.4,1.7-1.4,3.3v.5c0,1.4.5,2.5,1.4,3.2.9.7,2.2,1.1,3.8,1.1Z"></path><path class="st0" d="M1807.8,713.9h13.2v2.7h-13.2v-2.7ZM1817.7,736.3c-2.1,0-3.5-.5-4.5-1.5-.9-1-1.4-2.6-1.4-4.7v-15.9l1-5.6h2.5v21.2c0,1.4.2,2.4.7,2.9.5.5,1.3.8,2.6.8s.8,0,1.2,0,.8-.1,1.2-.3l.5,2.6c-.4.1-.8.2-1.3.3s-.9.2-1.4.3c-.5,0-.9.1-1.4.1Z"></path><path class="st0" d="M1832.2,736.3c-2.4,0-4.2-.6-5.6-1.7-1.4-1.1-2-2.6-2-4.6v-1.1c0-2,.7-3.5,2-4.6,1.4-1.1,3.3-1.6,5.8-1.6s4.7.5,6.2,1.6c1.5,1.1,2.3,2.5,2.3,4.5v1.2c0,2-.8,3.6-2.3,4.7-1.5,1.1-3.7,1.7-6.4,1.7ZM1839.4,728.7v-7.3c0-1.7-.5-3-1.4-3.8-1-.8-2.5-1.2-4.6-1.2s-2.7.2-4,.6c-1.3.4-2.5.9-3.7,1.6l-.5-2.7c.8-.4,1.6-.8,2.6-1.2,1-.3,2-.6,3.2-.8,1.1-.2,2.2-.3,3.1-.3,3,0,5.2.7,6.6,2s2.2,3.3,2.2,5.9v14.6h-2.5l-1.1-7.3ZM1833.2,734c1.9,0,3.4-.4,4.5-1.2,1.1-.8,1.7-1.9,1.7-3.2v-.6c0-1.3-.5-2.2-1.6-3s-2.5-1.1-4.4-1.1-3,.3-4,1c-.9.6-1.4,1.7-1.4,3.3v.5c0,1.4.5,2.5,1.4,3.2.9.7,2.2,1.1,3.8,1.1Z"></path></g><path class="st2" d="M798.5,830.3c0-10.4,8.4-18.8,18.8-18.8h1120.5c10.4,0,18.8,8.4,18.8,18.8v76.5c0,10.4-8.4,18.8-18.8,18.8H817.3c-10.4,0-18.8-8.4-18.8-18.8v-76.5Z"></path><g class="st7"><path class="st0" d="M897.2,853.3v4.6h-10.8l3.2-2.7v26.8h-6.4v-26.8l3.1,2.7h-10.7v-4.6h21.8Z"></path><path class="st0" d="M909,882.4c-2.6,0-4.8-.4-6.6-1.2-1.8-.8-3.2-2-4.2-3.5-1-1.5-1.5-3.3-1.5-5.4v-2.7c0-2.1.5-3.9,1.5-5.4,1-1.5,2.4-2.7,4.3-3.5,1.8-.8,4-1.2,6.6-1.2s4.7.4,6.6,1.2c1.8.8,3.3,2,4.3,3.5,1,1.5,1.5,3.3,1.5,5.4v2.7c0,2.1-.5,3.9-1.5,5.4-1,1.5-2.4,2.7-4.3,3.5-1.8.8-4,1.2-6.6,1.2ZM909,877.6c1.8,0,3.2-.5,4.3-1.5,1.1-1,1.6-2.3,1.6-4v-2.5c0-1.7-.5-3-1.6-4-1.1-1-2.5-1.5-4.3-1.5s-3.2.5-4.3,1.5c-1.1,1-1.6,2.3-1.6,4v2.5c0,1.6.5,3,1.6,3.9,1.1,1,2.5,1.5,4.3,1.5Z"></path><path class="st0" d="M926.3,859.9h4.1l2.3,6.5v23h-6.4v-29.5ZM941,882.4c-2.2,0-4.1-.4-5.7-1.3-1.6-.9-2.9-2.1-3.8-3.7-.9-1.6-1.4-3.5-1.4-5.6v-1.7c0-2.2.5-4,1.4-5.6.9-1.6,2.2-2.8,3.9-3.7,1.7-.9,3.6-1.3,5.8-1.3s5.5.9,7.2,2.6c1.7,1.8,2.5,4.3,2.5,7.5v2.7c0,3.2-.9,5.7-2.6,7.5-1.7,1.8-4.2,2.6-7.3,2.6ZM939.3,877.8c1.6,0,2.9-.5,3.8-1.5.9-1,1.4-2.4,1.4-4.2v-2.2c0-1.8-.5-3.2-1.4-4.2-.9-1-2.2-1.5-3.8-1.5s-3.6.6-4.8,1.7c-1.2,1.1-1.7,2.7-1.7,4.6v.9c0,2,.6,3.6,1.7,4.7,1.2,1.1,2.8,1.7,4.8,1.7Z"></path><path class="st0" d="M962.6,851.1v6h-7v-6h7ZM962.4,859.9v22.1h-6.4v-22.1h6.4Z"></path><path class="st0" d="M979.1,882.4c-2.4,0-4.5-.4-6.3-1.2-1.7-.8-3.1-2-4-3.5-.9-1.5-1.4-3.3-1.4-5.4v-2.7c0-2.1.5-3.9,1.4-5.4s2.3-2.7,4.1-3.5c1.8-.8,3.8-1.2,6.3-1.2,3.6,0,6.5.8,8.6,2.3,2.1,1.5,3.3,3.6,3.6,6.3l-6.2.5c-.3-1.4-.9-2.6-1.8-3.4-.9-.8-2.2-1.2-3.8-1.2s-3.1.5-4.1,1.5-1.5,2.4-1.5,4.1v2.9c0,1.7.5,3.1,1.5,4.1,1,1,2.4,1.5,4.1,1.5s2.8-.4,3.8-1.2c.9-.8,1.6-1.9,1.8-3.4l6.2.5c-.2,2.6-1.4,4.7-3.6,6.3-2.1,1.5-5,2.3-8.6,2.3Z"></path><path class="st0" d="M1004.4,878.4l12.9-10.6c.9-.8,1.7-1.5,2.3-2.1.6-.6,1-1.1,1.4-1.6s.6-.9.7-1.4c.1-.5.2-.9.2-1.5v-.3c0-1.2-.5-2.1-1.4-2.7-.9-.6-2.2-.9-4-.9s-2.8.4-3.8,1.2c-1,.8-1.6,2-2,3.5l-6.2-.6c.5-2.8,1.7-4.9,3.8-6.3,2-1.4,4.7-2.2,8.1-2.2s6.7.7,8.8,2c2.1,1.3,3.1,3.2,3.1,5.7v.6c0,1.2-.2,2.3-.5,3.3-.3,1-.9,1.9-1.8,2.9-.8,1-2,2.1-3.5,3.4l-11.9,10-2-3.3h19.8v4.6h-23.9v-3.6Z"></path></g><path class="st5" d="M1082.5,868.5c0-17.1,13.9-31,31-31s31,13.9,31,31-13.9,31-31,31-31-13.9-31-31Z"></path><path class="st5" d="M1186.5,868.5c0-17.1,13.9-31,31-31s31,13.9,31,31-13.9,31-31,31-31-13.9-31-31Z"></path><path class="st5" d="M1289.5,868.5c0-17.1,13.9-31,31-31s31,13.9,31,31-13.9,31-31,31-31-13.9-31-31Z"></path><path class="st5" d="M1393.5,868.5c0-17.1,13.9-31,31-31s31,13.9,31,31-13.9,31-31,31-31-13.9-31-31Z"></path><g class="st7"><path class="st0" d="M1529.8,876v6h-5.9v-6h5.9Z"></path><path class="st0" d="M1549.7,876v6h-5.9v-6h5.9Z"></path><path class="st0" d="M1569.7,876v6h-5.9v-6h5.9Z"></path></g><g class="st7"><path class="st0" d="M1639.8,879.1h14.6v2.9h-17.3v-28.7h17.1v2.9h-14.4l.8-2.3v13.8l-.8-1.4h13.6v2.7h-13.6l.8-1.4v13.7l-.8-2.3Z"></path><path class="st0" d="M1655.8,859.9h3.6l6.9,20.1h0l7-20.1h3.5l-7.3,22.1h-6.3l-7.4-22.1Z"></path><path class="st0" d="M1689.8,882.3c-2.1,0-3.9-.4-5.4-1.1-1.5-.7-2.6-1.8-3.4-3.2-.8-1.4-1.2-3.1-1.2-5.1v-4c0-1.9.4-3.6,1.2-5,.8-1.4,2-2.5,3.6-3.2,1.5-.8,3.4-1.1,5.6-1.1,3.3,0,5.8.9,7.6,2.6,1.8,1.7,2.7,4.2,2.7,7.4v2.5h-17.8v-2.3h14.9l-.6.9v-1.9c0-2-.6-3.6-1.8-4.7-1.2-1.1-2.8-1.7-4.9-1.7s-3.9.6-5.1,1.7c-1.2,1.1-1.8,2.8-1.8,4.8v4.3c0,2.1.6,3.6,1.7,4.7,1.2,1.1,2.8,1.6,4.9,1.6s3.4-.4,4.6-1.1c1.2-.8,1.9-1.8,2.2-3.2l3.4.2c-.5,2.2-1.6,3.9-3.4,5.1-1.8,1.2-4.1,1.8-6.9,1.8Z"></path><path class="st0" d="M1706.1,859.9h2.5l1.1,7.3v14.8h-3.6v-22.1ZM1722.5,868.9c0-2.3-.5-3.9-1.4-5-.9-1.1-2.4-1.6-4.3-1.6s-4.1.8-5.3,2.3c-1.2,1.6-1.8,3.8-1.8,6.8l-1.6,2.8v-2.7c0-3.9.9-6.9,2.6-8.9s4.2-3.1,7.4-3.1,4.7.7,6,2.2c1.3,1.5,2,3.8,2,6.9v13.3h-3.6v-13.1Z"></path><path class="st0" d="M1729.9,859.9h13.2v2.7h-13.2v-2.7ZM1739.8,882.3c-2,0-3.5-.5-4.5-1.5-.9-1-1.4-2.6-1.4-4.7v-15.9l1-5.6h2.5v21.2c0,1.4.2,2.4.7,2.9.5.5,1.3.8,2.6.8s.8,0,1.2,0,.8-.1,1.3-.3l.5,2.6c-.4.1-.8.2-1.3.3s-.9.2-1.4.3c-.5,0-.9.1-1.4.1Z"></path><path class="st0" d="M1758.4,853.3h10.1c3.8,0,6.6.8,8.4,2.4,1.8,1.6,2.7,4.1,2.7,7.5v8.9c0,3.4-.9,6-2.7,7.5-1.8,1.6-4.6,2.4-8.4,2.4h-10.1v-28.7ZM1761.2,879.3h6.5c3,0,5.1-.6,6.4-1.7,1.3-1.1,1.9-2.9,1.9-5.5v-9c0-2.6-.6-4.4-1.9-5.5-1.3-1.1-3.4-1.6-6.4-1.6h-6.5l.8-2v27.5l-.8-2.1Z"></path><path class="st0" d="M1792.4,882.3c-2.4,0-4.2-.6-5.6-1.7-1.4-1.1-2-2.6-2-4.6v-1.1c0-2,.7-3.5,2-4.6,1.4-1.1,3.3-1.6,5.8-1.6s4.7.5,6.2,1.6c1.5,1.1,2.3,2.5,2.3,4.5v1.2c0,2-.8,3.6-2.3,4.7-1.5,1.1-3.7,1.7-6.4,1.7ZM1799.5,874.7v-7.3c0-1.7-.5-3-1.4-3.8-1-.8-2.5-1.2-4.6-1.2s-2.7.2-4,.6c-1.3.4-2.5.9-3.7,1.6l-.5-2.7c.8-.4,1.6-.8,2.6-1.2,1-.3,2-.6,3.2-.8,1.1-.2,2.2-.3,3.1-.3,3,0,5.2.7,6.6,2s2.2,3.3,2.2,5.9v14.6h-2.5l-1.1-7.3ZM1793.3,880c1.9,0,3.4-.4,4.5-1.2,1.1-.8,1.7-1.9,1.7-3.2v-.6c0-1.3-.5-2.2-1.6-3s-2.5-1.1-4.4-1.1-3,.3-4,1c-.9.6-1.4,1.7-1.4,3.3v.5c0,1.4.5,2.5,1.4,3.2.9.7,2.2,1.1,3.8,1.1Z"></path><path class="st0" d="M1806.9,859.9h13.2v2.7h-13.2v-2.7ZM1816.8,882.3c-2.1,0-3.5-.5-4.5-1.5-.9-1-1.4-2.6-1.4-4.7v-15.9l1-5.6h2.5v21.2c0,1.4.2,2.4.7,2.9.5.5,1.3.8,2.6.8s.8,0,1.3,0c.4,0,.8-.1,1.2-.3l.5,2.6c-.4.1-.8.2-1.3.3-.5.1-.9.2-1.4.3-.5,0-.9.1-1.4.1Z"></path><path class="st0" d="M1831.3,882.3c-2.4,0-4.2-.6-5.6-1.7-1.4-1.1-2-2.6-2-4.6v-1.1c0-2,.7-3.5,2-4.6,1.4-1.1,3.3-1.6,5.8-1.6s4.7.5,6.2,1.6c1.5,1.1,2.3,2.5,2.3,4.5v1.2c0,2-.8,3.6-2.3,4.7s-3.7,1.7-6.4,1.7ZM1838.5,874.7v-7.3c0-1.7-.5-3-1.4-3.8-1-.8-2.5-1.2-4.6-1.2s-2.7.2-4,.6c-1.3.4-2.5.9-3.7,1.6l-.5-2.7c.8-.4,1.6-.8,2.6-1.2,1-.3,2-.6,3.2-.8,1.1-.2,2.2-.3,3.1-.3,3,0,5.2.7,6.6,2,1.5,1.3,2.2,3.3,2.2,5.9v14.6h-2.5l-1.1-7.3ZM1832.3,880c1.9,0,3.4-.4,4.5-1.2,1.1-.8,1.7-1.9,1.7-3.2v-.6c0-1.3-.5-2.2-1.6-3-1-.7-2.5-1.1-4.4-1.1s-3,.3-4,1c-.9.6-1.4,1.7-1.4,3.3v.5c0,1.4.5,2.5,1.4,3.2.9.7,2.2,1.1,3.8,1.1Z"></path></g><g class="st7"><path class="st0" d="M1410.6,970v6h-5.9v-6h5.9Z"></path><path class="st0" d="M1430.5,970v6h-5.9v-6h5.9Z"></path><path class="st0" d="M1450.4,970v6h-5.9v-6h5.9Z"></path></g><g class="st7"><path class="st0" d="M1316.3,554.3h12.1c3.3,0,5.8.8,7.6,2.3,1.7,1.5,2.6,3.7,2.6,6.7v2.2c0,2.8-.9,5-2.6,6.5-1.7,1.5-4.3,2.2-7.6,2.2h-5.9v-4.5h4.4c1.8,0,3.2-.4,4.1-1.2.9-.8,1.3-2,1.3-3.6v-1c0-1.7-.4-3-1.3-3.8-.9-.8-2.2-1.2-4.1-1.2h-5.5l1.4-1.5v25.7h-6.4v-28.7Z"></path><path class="st0" d="M1349.6,583.4c-2.6,0-4.6-.6-6.1-1.7-1.5-1.1-2.2-2.7-2.2-4.7v-.8c0-2.1.7-3.6,2.2-4.8s3.6-1.7,6.2-1.7,5.1.5,6.7,1.6c1.6,1.1,2.4,2.7,2.4,4.7v.9c0,2-.8,3.6-2.4,4.8-1.6,1.1-3.9,1.7-6.8,1.7ZM1356.5,575v-5.4c0-1.6-.5-2.7-1.4-3.5-1-.7-2.5-1.1-4.6-1.1s-2.6.2-3.9.5-2.6.8-3.7,1.5l-.9-4.4c.9-.4,1.9-.8,3-1.1,1.1-.3,2.3-.6,3.6-.8,1.2-.2,2.4-.3,3.5-.3,3.7,0,6.5.8,8.3,2.3,1.8,1.5,2.7,3.8,2.7,6.9v13.3h-5.1l-1.6-8ZM1351.4,580c1.5,0,2.7-.3,3.6-.9.9-.6,1.3-1.4,1.3-2.5v-.5c0-1-.4-1.8-1.3-2.3-.8-.6-2-.8-3.5-.8s-2.5.3-3.2.8c-.8.5-1.1,1.4-1.1,2.5v.4c0,1.1.4,1.9,1.1,2.5.7.6,1.8.9,3.1.9Z"></path><path class="st0" d="M1368.6,560.9h5.1l1.4,8.6v13.6h-6.4v-22.1ZM1373.5,571.6c0-3.7.7-6.5,2-8.4,1.3-1.9,3.2-2.8,5.8-2.8s.9,0,1.4,0c.5,0,.9.2,1.4.3l-.4,5.5c-.9-.2-1.8-.3-2.8-.3-1.9,0-3.4.6-4.4,1.8-1,1.2-1.5,3.1-1.5,5.6l-1.5-1.7Z"></path><path class="st0" d="M1385.4,560.9h15.8v4.5h-15.8v-4.5ZM1396,583.4c-2.4,0-4.1-.6-5.2-1.8-1.1-1.2-1.6-3-1.6-5.5v-14.4l1.8-6.1h4.6v19.4c0,1.3.2,2.2.7,2.7.5.5,1.3.8,2.5.8s.8,0,1.3-.1c.5,0,.9-.2,1.4-.4l.8,4.1c-.6.2-1.2.5-1.9.7-.7.2-1.4.3-2.2.5-.8.1-1.5.2-2.2.2Z"></path><path class="st0" d="M1412.6,552.1v6h-7v-6h7ZM1412.3,560.9v22.1h-6.4v-22.1h6.4Z"></path><path class="st0" d="M1415.8,560.9h15.8v4.5h-15.8v-4.5ZM1426.3,583.4c-2.4,0-4.1-.6-5.2-1.8-1.1-1.2-1.6-3-1.6-5.5v-14.4l1.8-6.1h4.6v19.4c0,1.3.2,2.2.7,2.7.5.5,1.3.8,2.5.8s.8,0,1.3-.1c.5,0,.9-.2,1.4-.4l.8,4.1c-.6.2-1.2.5-1.9.7-.7.2-1.4.3-2.2.5-.8.1-1.5.2-2.2.2Z"></path><path class="st0" d="M1442.9,552.1v6h-7v-6h7ZM1442.7,560.9v22.1h-6.4v-22.1h6.4Z"></path><path class="st0" d="M1460,583.4c-2.6,0-4.8-.4-6.6-1.2-1.8-.8-3.2-2-4.2-3.5-1-1.5-1.5-3.3-1.5-5.4v-2.7c0-2.1.5-3.9,1.5-5.4,1-1.5,2.4-2.7,4.3-3.5,1.8-.8,4-1.2,6.6-1.2s4.7.4,6.6,1.2c1.8.8,3.3,2,4.3,3.5,1,1.5,1.5,3.3,1.5,5.4v2.7c0,2.1-.5,3.9-1.5,5.4-1,1.5-2.4,2.7-4.3,3.5-1.8.8-4,1.2-6.6,1.2ZM1460,578.6c1.8,0,3.2-.5,4.3-1.5,1.1-1,1.6-2.3,1.6-4v-2.5c0-1.7-.5-3-1.6-4-1.1-1-2.5-1.5-4.3-1.5s-3.2.5-4.3,1.5c-1.1,1-1.6,2.3-1.6,4v2.5c0,1.6.5,3,1.6,3.9,1.1,1,2.5,1.5,4.3,1.5Z"></path><path class="st0" d="M1477.4,560.9h5.1l1.4,6.6v15.5h-6.4v-22.1ZM1494.4,571.1c0-2-.4-3.5-1.1-4.4-.8-.9-1.9-1.4-3.6-1.4s-3.3.7-4.3,2c-1,1.3-1.5,3.3-1.5,5.9l-2.3,3.3v-2.8c0-4.3.9-7.6,2.8-9.8,1.8-2.3,4.5-3.4,7.9-3.4s5.1.8,6.5,2.3c1.4,1.6,2.1,4,2.1,7.3v12.9h-6.4v-11.9Z"></path><path class="st0" d="M1516.6,554.3h13.5c2,0,3.7.3,5,.8,1.3.5,2.3,1.3,3,2.3.7,1,1,2.3,1,3.9v.2c0,2.1-.8,3.8-2.2,5.1-1.4,1.3-3.4,1.9-5.9,2v-.7c3,0,5.2.7,6.6,1.9,1.4,1.2,2.2,2.9,2.2,5.4v.3c0,2.5-.7,4.4-2.2,5.7-1.5,1.3-3.7,1.9-6.7,1.9h-14.3v-28.7ZM1529,566.5c.8,0,1.5-.2,2.1-.5s1-.8,1.3-1.4c.3-.6.5-1.3.5-2.1v-.3c0-1.3-.4-2.2-1.1-2.8-.7-.6-1.9-.9-3.5-.9h-5.2v7.9h5.9ZM1528.8,578.7c1.1,0,1.9-.1,2.6-.4s1.1-.7,1.4-1.3c.3-.6.4-1.3.4-2.3v-.4c0-1.3-.3-2.3-1-3-.7-.7-1.7-1-3-1h-6.2v8.3h5.8Z"></path></g><path class="st10" d="M394.5,506.9h177.9v-224.4l-4.6,4.6h150.4v-9.2h-155v224.4l4.6-4.6h-173.4v9.2ZM713.7,296.2l27.5-13.8-27.5-13.8v27.5Z"></path><path class="st10" d="M394.5,576.9h178v231.6l-4.6-4.6h150.5v9.2h-155v-231.6l4.6,4.6h-173.4v-9.2ZM713.7,794.8l27.5,13.8-27.5,13.8v-27.5Z"></path><path class="st10" d="M2436.3,506.9h-155v-224.4l4.6,4.6h-173.4v-9.2h177.9v224.4l-4.6-4.6h150.4v9.2ZM2431.7,488.6l27.5,13.8-27.5,13.8v-27.5Z"></path><path class="st10" d="M2436.3,576.9h-155v231.6l4.6-4.6h-173.4v9.2h178v-231.6l-4.6,4.6h150.5v-9.2ZM2431.8,595.2l27.5-13.8-27.5-13.8v27.5Z"></path><g class="st7"><path class="st0" d="M1404.6,1090.9v8.1h-8v-8.1h8Z"></path><path class="st0" d="M1431.3,1090.9v8.1h-8v-8.1h8Z"></path><path class="st0" d="M1458,1090.9v8.1h-8v-8.1h8Z"></path></g></svg> 